<svg version="1.1" id="Layer_1" xmlns="http://www.w3.org/2000/svg" xmlns:xlink="http://www.w3.org/1999/xlink" x="0px" y="0px"
	 width="100%" viewBox="0 0 2247 993" enable-background="new 0 0 2247 993" xml:space="preserve">
<path fill="#FFFFFF" opacity="1.000000" stroke="none" 
	d="
M1483.000000,994.000000 
	C988.666748,994.000000 494.833496,994.000000 1.000199,994.000000 
	C1.000133,663.000122 1.000133,332.000305 1.000066,1.000332 
	C749.999756,1.000221 1498.999512,1.000221 2247.999512,1.000111 
	C2247.999512,331.999664 2247.999512,662.999329 2247.999756,993.999512 
	C1993.166626,994.000000 1738.333374,994.000000 1483.000000,994.000000 
M1786.959106,756.988586 
	C1892.468140,756.992371 1997.977051,756.996643 2103.486084,756.993225 
	C2104.646973,756.993164 2105.807617,756.891479 2107.897949,756.984497 
	C2137.144775,756.984497 2166.391846,756.984497 2196.000000,756.984497 
	C2196.000000,755.239014 2196.000000,753.945374 2196.000000,752.651794 
	C2196.000000,660.254822 2196.000732,567.857849 2195.993164,475.460876 
	C2195.993164,474.299469 2195.890869,473.138031 2195.988525,471.053253 
	C2195.988525,322.488770 2195.988525,173.924286 2195.988525,25.000000 
	C2193.779297,25.000000 2191.986328,25.000000 2190.193604,25.000000 
	C1896.292969,25.000000 1602.392456,24.999701 1308.491821,25.006779 
	C1306.663330,25.006823 1304.834717,25.109457 1302.339844,25.028828 
	C1301.891113,25.073942 1301.442505,25.119057 1300.068237,25.011610 
	C884.435913,25.011610 468.803619,25.011610 53.000000,25.011610 
	C53.000000,27.271734 53.000000,28.922451 53.000000,30.573168 
	C53.000000,104.051399 52.998920,177.529633 53.006863,251.007858 
	C53.007042,252.669846 53.109482,254.331833 53.025032,256.789093 
	C53.071411,257.861511 53.117790,258.933899 53.011608,260.931793 
	C53.011608,426.222046 53.011608,591.512329 53.011608,756.837280 
	C76.719467,756.837280 99.843636,756.837280 123.897652,756.984497 
	C234.116638,756.989685 344.335602,756.995361 454.554596,756.993286 
	C455.716217,756.993286 456.877808,756.892151 458.961029,756.988586 
	C591.135498,756.992432 723.309937,756.996582 855.484436,756.993225 
	C856.645569,756.993164 857.806702,756.891479 859.897705,756.984558 
	C876.611633,756.935791 893.325500,756.887024 910.961060,756.988586 
	C1068.468750,756.992371 1225.976318,756.996460 1383.484009,756.993286 
	C1384.645386,756.993286 1385.806763,756.891541 1387.898071,756.984375 
	C1405.278564,756.935669 1422.659058,756.886902 1440.961182,756.988586 
	C1528.469482,756.992432 1615.977783,756.996826 1703.486084,756.993164 
	C1704.646484,756.993164 1705.807007,756.891479 1707.897217,756.984497 
	C1733.944580,756.935730 1759.991821,756.886902 1786.959106,756.988586 
z"/>
<path fill="#000000" opacity="1.000000" stroke="none" 
	d="
M1706.967407,756.837280 
	C1705.807007,756.891479 1704.646484,756.993164 1703.486084,756.993164 
	C1615.977783,756.996826 1528.469482,756.992432 1440.792725,756.631470 
	C1484.205811,752.813049 1523.792725,738.076538 1559.759399,713.531128 
	C1595.711304,688.996033 1623.188721,657.116577 1642.652222,617.577026 
	C1640.884888,617.251404 1640.244995,617.030701 1639.604858,617.030273 
	C1604.110229,617.008911 1568.615356,616.971191 1533.121216,617.107239 
	C1531.410278,617.113770 1529.470459,618.379822 1528.039917,619.551147 
	C1523.047485,623.639221 1518.471558,628.264832 1513.310059,632.112976 
	C1481.622314,655.737305 1446.283813,667.062561 1406.502930,664.131775 
	C1391.182617,663.002991 1376.490845,659.870178 1362.131592,654.594360 
	C1342.077759,647.226440 1324.124634,636.247070 1309.120850,621.245361 
	C1299.470825,611.596741 1291.167236,600.472290 1283.129517,589.379395 
	C1276.240723,579.871948 1271.591431,569.014160 1267.947754,556.934204 
	C1400.220459,556.934204 1531.912720,556.934204 1664.898682,556.934204 
	C1665.958008,541.567139 1667.096802,526.763245 1667.942871,511.942719 
	C1668.288452,505.889862 1668.364380,499.773956 1667.919800,493.734100 
	C1667.132202,483.034851 1666.561035,472.242615 1664.641968,461.718628 
	C1659.528809,433.679901 1649.855469,407.245483 1635.796997,382.338287 
	C1620.348999,354.969604 1600.129028,331.614380 1576.020020,311.863251 
	C1549.774902,290.362122 1520.117432,274.796783 1487.265747,265.581512 
	C1466.475708,259.749664 1445.380859,256.115143 1423.769287,256.059509 
	C1414.486206,256.035583 1405.143921,256.130981 1395.931519,257.125824 
	C1383.493408,258.469055 1371.015747,260.091034 1358.802124,262.734619 
	C1334.157959,268.068726 1311.311401,278.154358 1289.522705,290.752716 
	C1263.648682,305.713318 1241.549805,325.220184 1222.705444,348.156982 
	C1206.898560,367.396790 1194.190308,388.715759 1184.908813,412.021240 
	C1175.167480,436.481201 1168.660278,461.773560 1167.304199,487.953796 
	C1166.390015,505.606323 1167.570801,523.473083 1169.154785,541.123718 
	C1171.359863,565.693604 1178.861694,589.048767 1189.231567,611.341187 
	C1206.423950,648.300476 1230.769775,679.743164 1263.206421,704.694702 
	C1295.103882,729.231506 1330.618774,745.746094 1370.302612,753.072937 
	C1375.898804,754.106140 1381.414917,755.571777 1386.968140,756.837280 
	C1385.806763,756.891541 1384.645386,756.993286 1383.484009,756.993286 
	C1225.976318,756.996460 1068.468750,756.992371 910.792725,756.631531 
	C1014.657959,747.946655 1087.540161,674.995667 1112.372681,617.320435 
	C1111.878418,617.219971 1111.393799,617.035583 1110.909180,617.035278 
	C1075.076172,617.014404 1039.243164,616.976013 1003.410645,617.098145 
	C1001.671631,617.104126 999.662720,618.195251 998.250061,619.354492 
	C993.004456,623.659424 988.168701,628.481079 982.797546,632.612671 
	C955.512451,653.601196 924.288391,663.807495 890.157227,664.795288 
	C879.509216,665.103455 868.651733,663.752930 858.131348,661.837097 
	C827.525940,656.263428 801.071411,642.103943 778.465149,620.877075 
	C765.313477,608.527771 754.868958,593.992554 746.596863,577.993164 
	C743.224976,571.471375 740.721741,564.500549 737.472229,556.914429 
	C870.247559,556.914429 1001.846008,556.914429 1134.568359,556.914429 
	C1136.069458,541.299133 1138.615601,526.061523 1138.694824,510.811066 
	C1138.773438,495.679871 1136.801636,480.482422 1134.948730,465.410004 
	C1132.307617,443.926605 1125.825439,423.387634 1116.818359,403.786743 
	C1100.899780,369.144928 1078.796631,339.128113 1049.292236,314.605042 
	C1035.074829,302.787903 1019.928345,292.517303 1003.653931,283.935638 
	C972.337708,267.422302 938.757202,258.487701 903.550232,256.153503 
	C883.998779,254.857254 864.348450,255.805618 845.021606,259.233215 
	C814.775757,264.597260 786.324829,275.054047 759.725037,290.595703 
	C734.359375,305.416260 712.625427,324.494202 693.878784,346.877869 
	C680.031860,363.411194 668.836853,381.730042 659.683289,401.395905 
	C646.744141,429.194916 639.026733,458.358917 637.319519,488.760010 
	C636.300903,506.899750 636.983948,525.399109 639.379639,543.407166 
	C643.376282,573.449829 653.183838,601.873352 668.118164,628.468201 
	C684.378601,657.424316 705.298950,682.222229 731.294739,702.946838 
	C763.675293,728.761475 800.099060,745.425598 840.721558,753.110352 
	C846.820435,754.264160 852.886536,755.590637 858.967834,756.837280 
	C857.806702,756.891479 856.645569,756.993164 855.484436,756.993225 
	C723.309937,756.996582 591.135498,756.992432 458.781555,756.634216 
	C461.540985,755.858215 464.476349,755.101318 467.419312,755.070496 
	C483.851746,754.898193 499.441467,750.976501 514.721619,745.213013 
	C531.524109,738.875366 546.518494,729.547363 559.744507,717.602661 
	C575.909363,703.003845 588.536316,685.763000 597.298828,665.603210 
	C605.204407,647.415039 609.090637,628.444885 609.833984,608.845215 
	C610.157593,600.313110 609.016479,591.668335 607.934082,583.151794 
	C605.657043,565.234497 600.134033,548.249390 590.992737,532.677368 
	C585.424316,523.191650 578.829773,514.308228 573.189270,505.890137 
	C579.288269,496.619141 585.871521,487.852203 591.133606,478.353333 
	C601.848816,459.010437 607.687744,438.258453 609.323547,415.986877 
	C610.371460,401.719757 609.446106,387.788940 606.372620,374.155853 
	C598.507202,339.266815 580.969360,310.146698 552.486145,287.902039 
	C526.423401,267.547699 496.948151,256.467407 463.967346,256.128510 
	C415.473907,255.630188 366.969910,256.195953 318.474518,255.804291 
	C310.525513,255.740097 305.903564,257.721497 301.449097,264.747101 
	C282.126923,295.221954 262.003082,325.188873 242.142914,355.322174 
	C221.098129,387.252869 199.992081,419.143219 179.012115,451.116425 
	C177.196091,453.884033 175.327194,455.129395 171.853455,455.092865 
	C153.189392,454.896393 134.522202,455.000000 115.856079,455.000000 
	C114.082458,455.000000 112.308838,455.000000 110.474503,455.000000 
	C110.474503,489.022186 110.474503,522.372742 110.474503,556.000000 
	C112.771370,556.000000 114.596046,556.000000 116.420723,556.000000 
	C144.419891,556.000000 172.423370,555.731567 200.415359,556.179932 
	C207.842255,556.298889 212.008499,554.224854 216.154678,547.716553 
	C235.720642,517.003723 256.050507,486.777588 276.104828,456.375854 
	C297.071320,424.591339 318.081085,392.835144 338.922699,360.968994 
	C340.904633,357.938782 342.992249,356.911591 346.536896,356.922668 
	C385.868683,357.045441 425.200989,356.993561 464.533173,357.020599 
	C466.342896,357.021820 468.207794,357.095703 469.953827,357.519562 
	C497.506744,364.208557 513.409790,388.783875 507.880524,416.564026 
	C503.541351,438.365143 484.610931,454.493622 464.555603,454.814819 
	C425.233521,455.444550 385.894012,455.046326 346.562683,454.866760 
	C344.535858,454.857483 341.788025,453.432373 340.617615,451.784515 
	C334.388641,443.014221 328.550873,433.965942 322.590393,425.005402 
	C321.467651,423.317566 320.402557,421.591400 318.911835,419.258514 
	C317.174194,421.984222 315.977905,423.922791 314.721741,425.821808 
	C300.198364,447.777557 285.704224,469.752869 271.088623,491.647095 
	C269.201019,494.474731 268.931763,496.575043 270.965393,499.601868 
	C282.597626,516.915527 294.045959,534.354309 305.398163,551.853394 
	C307.429840,554.985107 309.686432,556.107788 313.475891,556.096069 
	C360.974030,555.949524 408.472809,555.977295 455.971313,556.041565 
	C459.922607,556.046875 463.904785,556.422913 467.818787,556.994995 
	C492.132385,560.548889 508.062836,580.706848 508.982971,604.042664 
	C509.519745,617.655823 504.698029,629.576050 495.767761,639.453125 
	C489.516632,646.367065 481.603394,652.187378 471.989868,652.806213 
	C455.916595,653.841003 439.766144,653.903442 423.646881,653.954041 
	C380.648590,654.089050 337.649048,653.869873 294.651001,654.036743 
	C252.199387,654.201599 209.749161,654.716248 167.297577,654.903015 
	C164.025909,654.917419 162.587189,656.498718 161.088425,658.770325 
	C145.771774,681.985657 130.906754,705.521423 114.860245,728.221741 
	C108.449692,737.290466 110.551697,746.263306 110.196106,755.459839 
	C114.861282,755.962952 118.914551,756.400085 122.967819,756.837280 
	C99.843636,756.837280 76.719467,756.837280 53.011608,756.837280 
	C53.011608,591.512329 53.011608,426.222046 53.445210,260.483032 
	C54.275463,260.476379 54.766602,260.864471 55.054836,261.368561 
	C60.883747,271.562622 66.670006,281.781067 72.503754,291.972351 
	C84.006783,312.067505 95.620979,332.099945 106.966721,352.283356 
	C108.920479,355.758972 111.029984,357.145477 115.086853,357.098602 
	C134.234604,356.877411 153.386490,357.037720 172.536499,356.961182 
	C175.569763,356.949066 177.534164,357.630188 179.363480,360.517700 
	C185.838531,370.738525 192.787659,380.659058 199.864609,391.149200 
	C200.503143,390.268677 200.917221,389.739349 201.287567,389.181000 
	C217.061096,365.400818 232.881989,341.651428 248.467941,317.748871 
	C249.361771,316.378082 249.062531,313.282745 248.091263,311.787018 
	C236.898987,294.550995 225.358246,277.540863 214.204941,260.280243 
	C212.189621,257.161377 210.311630,255.894669 206.532974,255.904984 
	C155.410355,256.044434 104.287224,255.995880 53.164223,255.993820 
	C53.109482,254.331833 53.007042,252.669846 53.006863,251.007858 
	C52.998920,177.529633 53.000000,104.051399 53.000000,30.573168 
	C53.000000,28.922451 53.000000,27.271734 53.000000,25.011610 
	C468.803619,25.011610 884.435913,25.011610 1300.531738,25.471676 
	C1289.162964,62.510975 1265.454468,86.582222 1226.668091,95.195831 
	C1267.039795,103.517960 1289.519897,129.504852 1302.104492,166.437408 
	C1314.575684,129.183701 1337.165649,103.472733 1377.119141,95.241806 
	C1375.829224,94.749146 1374.869507,94.325974 1373.875122,94.011993 
	C1367.843628,92.107567 1361.648804,90.615295 1355.797852,88.265060 
	C1340.363037,82.065109 1328.534180,71.014359 1318.803223,58.004547 
	C1311.494629,48.233170 1305.931885,37.235725 1303.006226,25.164185 
	C1304.834717,25.109457 1306.663330,25.006823 1308.491821,25.006779 
	C1602.392456,24.999701 1896.292969,25.000000 2190.193604,25.000000 
	C2191.986328,25.000000 2193.779297,25.000000 2195.988525,25.000000 
	C2195.988525,173.924286 2195.988525,322.488770 2195.528809,471.444550 
	C2194.655029,469.825592 2194.211426,467.820953 2193.831787,465.804260 
	C2189.692627,443.825409 2183.759766,422.453369 2174.607178,401.915100 
	C2164.051514,378.228882 2150.096924,356.794250 2132.890137,337.626343 
	C2116.333740,319.183136 2097.504150,303.303802 2076.125732,290.363342 
	C2040.266846,268.657898 2001.431030,256.701965 1959.825195,254.248337 
	C1945.013916,253.374863 1930.004150,254.891174 1915.143188,256.057617 
	C1890.525757,257.989807 1867.067627,264.954407 1844.592163,274.855316 
	C1807.227295,291.315308 1775.635376,315.460815 1749.995117,347.396271 
	C1731.872681,369.968018 1717.948608,394.743439 1708.402100,422.080139 
	C1700.999390,443.277985 1695.406250,465.064117 1695.250488,487.385590 
	C1694.638550,575.033875 1694.998657,662.688904 1695.010498,750.341431 
	C1695.010742,752.105896 1695.165039,753.870422 1695.240479,755.483826 
	C1699.525635,755.978394 1703.246582,756.407898 1706.967407,756.837280 
M1317.229858,250.946030 
	C1317.694336,250.533630 1318.158936,250.121231 1319.420166,249.001587 
	C1313.722900,249.001587 1308.982178,249.025513 1304.241821,248.997208 
	C1288.012695,248.900314 1272.881714,244.072845 1258.745605,236.775101 
	C1242.061523,228.161972 1227.427856,216.729279 1214.764771,202.552185 
	C1203.550537,189.997101 1193.654053,176.615219 1185.599854,161.966446 
	C1171.939087,137.120300 1161.740845,110.877907 1155.918823,83.032333 
	C1155.093384,79.084557 1154.034424,75.185608 1152.832397,70.227493 
	C1151.936279,72.684395 1151.317871,73.871132 1151.071045,75.130646 
	C1145.104370,105.581375 1134.999023,134.528992 1119.763184,161.621735 
	C1106.514404,185.181229 1090.375488,206.377975 1068.639893,222.790436 
	C1045.023926,240.622742 1018.874573,251.082779 988.674011,249.048386 
	C988.150269,249.013107 987.603333,249.323044 986.066895,249.749664 
	C1069.995728,284.582458 1124.912109,345.010681 1152.718506,431.748108 
	C1180.241211,345.115997 1234.487671,285.452698 1317.229858,250.946030 
M110.000000,662.569702 
	C110.000000,677.200317 110.000000,691.830994 110.000000,706.461609 
	C110.396172,706.552185 110.792336,706.642700 111.188507,706.733215 
	C122.392387,689.687073 133.596268,672.640869 144.969284,655.337402 
	C132.963669,655.337402 121.619041,655.337402 110.000000,655.337402 
	C110.000000,657.645203 110.000000,659.617615 110.000000,662.569702 
z"/>
<path fill="#002F5B" opacity="1.000000" stroke="none" 
	d="
M123.432739,756.910889 
	C118.914551,756.400085 114.861282,755.962952 110.196106,755.459839 
	C110.551697,746.263306 108.449692,737.290466 114.860245,728.221741 
	C130.906754,705.521423 145.771774,681.985657 161.088425,658.770325 
	C162.587189,656.498718 164.025909,654.917419 167.297577,654.903015 
	C209.749161,654.716248 252.199387,654.201599 294.651001,654.036743 
	C337.649048,653.869873 380.648590,654.089050 423.646881,653.954041 
	C439.766144,653.903442 455.916595,653.841003 471.989868,652.806213 
	C481.603394,652.187378 489.516632,646.367065 495.767761,639.453125 
	C504.698029,629.576050 509.519745,617.655823 508.982971,604.042664 
	C508.062836,580.706848 492.132385,560.548889 467.818787,556.994995 
	C463.904785,556.422913 459.922607,556.046875 455.971313,556.041565 
	C408.472809,555.977295 360.974030,555.949524 313.475891,556.096069 
	C309.686432,556.107788 307.429840,554.985107 305.398163,551.853394 
	C294.045959,534.354309 282.597626,516.915527 270.965393,499.601868 
	C268.931763,496.575043 269.201019,494.474731 271.088623,491.647095 
	C285.704224,469.752869 300.198364,447.777557 314.721741,425.821808 
	C315.977905,423.922791 317.174194,421.984222 318.911835,419.258514 
	C320.402557,421.591400 321.467651,423.317566 322.590393,425.005402 
	C328.550873,433.965942 334.388641,443.014221 340.617615,451.784515 
	C341.788025,453.432373 344.535858,454.857483 346.562683,454.866760 
	C385.894012,455.046326 425.233521,455.444550 464.555603,454.814819 
	C484.610931,454.493622 503.541351,438.365143 507.880524,416.564026 
	C513.409790,388.783875 497.506744,364.208557 469.953827,357.519562 
	C468.207794,357.095703 466.342896,357.021820 464.533173,357.020599 
	C425.200989,356.993561 385.868683,357.045441 346.536896,356.922668 
	C342.992249,356.911591 340.904633,357.938782 338.922699,360.968994 
	C318.081085,392.835144 297.071320,424.591339 276.104828,456.375854 
	C256.050507,486.777588 235.720642,517.003723 216.154678,547.716553 
	C212.008499,554.224854 207.842255,556.298889 200.415359,556.179932 
	C172.423370,555.731567 144.419891,556.000000 116.420723,556.000000 
	C114.596046,556.000000 112.771370,556.000000 110.474503,556.000000 
	C110.474503,522.372742 110.474503,489.022186 110.474503,455.000000 
	C112.308838,455.000000 114.082458,455.000000 115.856079,455.000000 
	C134.522202,455.000000 153.189392,454.896393 171.853455,455.092865 
	C175.327194,455.129395 177.196091,453.884033 179.012115,451.116425 
	C199.992081,419.143219 221.098129,387.252869 242.142914,355.322174 
	C262.003082,325.188873 282.126923,295.221954 301.449097,264.747101 
	C305.903564,257.721497 310.525513,255.740097 318.474518,255.804291 
	C366.969910,256.195953 415.473907,255.630188 463.967346,256.128510 
	C496.948151,256.467407 526.423401,267.547699 552.486145,287.902039 
	C580.969360,310.146698 598.507202,339.266815 606.372620,374.155853 
	C609.446106,387.788940 610.371460,401.719757 609.323547,415.986877 
	C607.687744,438.258453 601.848816,459.010437 591.133606,478.353333 
	C585.871521,487.852203 579.288269,496.619141 573.189270,505.890137 
	C578.829773,514.308228 585.424316,523.191650 590.992737,532.677368 
	C600.134033,548.249390 605.657043,565.234497 607.934082,583.151794 
	C609.016479,591.668335 610.157593,600.313110 609.833984,608.845215 
	C609.090637,628.444885 605.204407,647.415039 597.298828,665.603210 
	C588.536316,685.763000 575.909363,703.003845 559.744507,717.602661 
	C546.518494,729.547363 531.524109,738.875366 514.721619,745.213013 
	C499.441467,750.976501 483.851746,754.898193 467.419312,755.070496 
	C464.476349,755.101318 461.540985,755.858215 458.320740,756.559021 
	C456.877808,756.892151 455.716217,756.993286 454.554596,756.993286 
	C344.335602,756.995361 234.116638,756.989685 123.432739,756.910889 
z"/>
<path fill="#002F5B" opacity="1.000000" stroke="none" 
	d="
M859.432739,756.910889 
	C852.886536,755.590637 846.820435,754.264160 840.721558,753.110352 
	C800.099060,745.425598 763.675293,728.761475 731.294739,702.946838 
	C705.298950,682.222229 684.378601,657.424316 668.118164,628.468201 
	C653.183838,601.873352 643.376282,573.449829 639.379639,543.407166 
	C636.983948,525.399109 636.300903,506.899750 637.319519,488.760010 
	C639.026733,458.358917 646.744141,429.194916 659.683289,401.395905 
	C668.836853,381.730042 680.031860,363.411194 693.878784,346.877869 
	C712.625427,324.494202 734.359375,305.416260 759.725037,290.595703 
	C786.324829,275.054047 814.775757,264.597260 845.021606,259.233215 
	C864.348450,255.805618 883.998779,254.857254 903.550232,256.153503 
	C938.757202,258.487701 972.337708,267.422302 1003.653931,283.935638 
	C1019.928345,292.517303 1035.074829,302.787903 1049.292236,314.605042 
	C1078.796631,339.128113 1100.899780,369.144928 1116.818359,403.786743 
	C1125.825439,423.387634 1132.307617,443.926605 1134.948730,465.410004 
	C1136.801636,480.482422 1138.773438,495.679871 1138.694824,510.811066 
	C1138.615601,526.061523 1136.069458,541.299133 1134.568359,556.914429 
	C1001.846008,556.914429 870.247559,556.914429 737.472229,556.914429 
	C740.721741,564.500549 743.224976,571.471375 746.596863,577.993164 
	C754.868958,593.992554 765.313477,608.527771 778.465149,620.877075 
	C801.071411,642.103943 827.525940,656.263428 858.131348,661.837097 
	C868.651733,663.752930 879.509216,665.103455 890.157227,664.795288 
	C924.288391,663.807495 955.512451,653.601196 982.797546,632.612671 
	C988.168701,628.481079 993.004456,623.659424 998.250061,619.354492 
	C999.662720,618.195251 1001.671631,617.104126 1003.410645,617.098145 
	C1039.243164,616.976013 1075.076172,617.014404 1110.909180,617.035278 
	C1111.393799,617.035583 1111.878418,617.219971 1112.372681,617.320435 
	C1087.540161,674.995667 1014.657959,747.946655 910.331909,756.556396 
	C893.325500,756.887024 876.611633,756.935791 859.432739,756.910889 
M811.676025,368.121735 
	C776.540466,388.260345 751.908264,417.179230 738.071228,455.573151 
	C837.913452,455.573151 937.239136,455.573151 1036.961792,455.573151 
	C1029.810059,433.002777 1017.573608,414.036621 1001.787720,397.462677 
	C985.125793,379.968903 965.205688,367.247131 942.495789,358.587036 
	C917.054504,348.885406 890.870972,346.792053 864.306763,350.307343 
	C846.031921,352.725647 828.598145,358.799286 811.676025,368.121735 
z"/>
<path fill="#002F5B" opacity="1.000000" stroke="none" 
	d="
M1387.433105,756.910767 
	C1381.414917,755.571777 1375.898804,754.106140 1370.302612,753.072937 
	C1330.618774,745.746094 1295.103882,729.231506 1263.206421,704.694702 
	C1230.769775,679.743164 1206.423950,648.300476 1189.231567,611.341187 
	C1178.861694,589.048767 1171.359863,565.693604 1169.154785,541.123718 
	C1167.570801,523.473083 1166.390015,505.606323 1167.304199,487.953796 
	C1168.660278,461.773560 1175.167480,436.481201 1184.908813,412.021240 
	C1194.190308,388.715759 1206.898560,367.396790 1222.705444,348.156982 
	C1241.549805,325.220184 1263.648682,305.713318 1289.522705,290.752716 
	C1311.311401,278.154358 1334.157959,268.068726 1358.802124,262.734619 
	C1371.015747,260.091034 1383.493408,258.469055 1395.931519,257.125824 
	C1405.143921,256.130981 1414.486206,256.035583 1423.769287,256.059509 
	C1445.380859,256.115143 1466.475708,259.749664 1487.265747,265.581512 
	C1520.117432,274.796783 1549.774902,290.362122 1576.020020,311.863251 
	C1600.129028,331.614380 1620.348999,354.969604 1635.796997,382.338287 
	C1649.855469,407.245483 1659.528809,433.679901 1664.641968,461.718628 
	C1666.561035,472.242615 1667.132202,483.034851 1667.919800,493.734100 
	C1668.364380,499.773956 1668.288452,505.889862 1667.942871,511.942719 
	C1667.096802,526.763245 1665.958008,541.567139 1664.898682,556.934204 
	C1531.912720,556.934204 1400.220459,556.934204 1267.947754,556.934204 
	C1271.591431,569.014160 1276.240723,579.871948 1283.129517,589.379395 
	C1291.167236,600.472290 1299.470825,611.596741 1309.120850,621.245361 
	C1324.124634,636.247070 1342.077759,647.226440 1362.131592,654.594360 
	C1376.490845,659.870178 1391.182617,663.002991 1406.502930,664.131775 
	C1446.283813,667.062561 1481.622314,655.737305 1513.310059,632.112976 
	C1518.471558,628.264832 1523.047485,623.639221 1528.039917,619.551147 
	C1529.470459,618.379822 1531.410278,617.113770 1533.121216,617.107239 
	C1568.615356,616.971191 1604.110229,617.008911 1639.604858,617.030273 
	C1640.244995,617.030701 1640.884888,617.251404 1642.652222,617.577026 
	C1623.188721,657.116577 1595.711304,688.996033 1559.759399,713.531128 
	C1523.792725,738.076538 1484.205811,752.813049 1440.332031,756.556274 
	C1422.659058,756.886902 1405.278564,756.935669 1387.433105,756.910767 
M1332.500000,456.000000 
	C1410.523071,456.000000 1488.546143,456.000000 1566.830566,456.000000 
	C1549.047974,398.719727 1485.078979,338.919556 1396.205078,350.111572 
	C1361.606201,354.468658 1331.682739,369.705902 1306.845337,393.939819 
	C1289.179443,411.176514 1275.916382,431.660370 1267.934448,456.000000 
	C1289.559204,456.000000 1310.529663,456.000000 1332.500000,456.000000 
z"/>
<path fill="#000000" opacity="1.000000" stroke="none" 
	d="
M2106.968506,756.837219 
	C2105.807617,756.891479 2104.646973,756.993164 2103.486084,756.993225 
	C1997.977051,756.996643 1892.468140,756.992371 1786.756348,756.634399 
	C1790.445435,755.511658 1788.939941,752.393982 1788.941650,750.237671 
	C1789.010132,663.081482 1788.895996,575.924866 1789.148560,488.769348 
	C1789.176147,479.265961 1790.390137,469.567139 1792.538696,460.303375 
	C1801.530762,421.533173 1822.810181,391.139709 1856.640381,369.966644 
	C1878.270020,356.429565 1901.875488,348.998322 1927.591309,348.999878 
	C1939.923218,349.000641 1952.276245,348.555054 1964.580078,349.143433 
	C1974.102783,349.598816 1983.770020,350.480438 1993.014648,352.679199 
	C2024.200317,360.096497 2049.836914,376.602417 2070.082764,401.529114 
	C2091.025146,427.313538 2101.713867,456.983612 2101.865723,489.946930 
	C2102.263916,576.434814 2102.000000,662.925720 2102.000000,749.415405 
	C2102.000000,751.389038 2102.000000,753.362610 2102.000000,755.243408 
	C2103.933838,755.863770 2105.451172,756.350464 2106.968506,756.837219 
z"/>
<path fill="#002F5B" opacity="1.000000" stroke="none" 
	d="
M2107.433105,756.910889 
	C2105.451172,756.350464 2103.933838,755.863770 2102.000000,755.243408 
	C2102.000000,753.362610 2102.000000,751.389038 2102.000000,749.415405 
	C2102.000000,662.925720 2102.263916,576.434814 2101.865723,489.946930 
	C2101.713867,456.983612 2091.025146,427.313538 2070.082764,401.529114 
	C2049.836914,376.602417 2024.200317,360.096497 1993.014648,352.679199 
	C1983.770020,350.480438 1974.102783,349.598816 1964.580078,349.143433 
	C1952.276245,348.555054 1939.923218,349.000641 1927.591309,348.999878 
	C1901.875488,348.998322 1878.270020,356.429565 1856.640381,369.966644 
	C1822.810181,391.139709 1801.530762,421.533173 1792.538696,460.303375 
	C1790.390137,469.567139 1789.176147,479.265961 1789.148560,488.769348 
	C1788.895996,575.924866 1789.010132,663.081482 1788.941650,750.237671 
	C1788.939941,752.393982 1790.445435,755.511658 1786.296387,756.559204 
	C1759.991821,756.886902 1733.944580,756.935730 1707.432373,756.910889 
	C1703.246582,756.407898 1699.525635,755.978394 1695.240479,755.483826 
	C1695.165039,753.870422 1695.010742,752.105896 1695.010498,750.341431 
	C1694.998657,662.688904 1694.638550,575.033875 1695.250488,487.385590 
	C1695.406250,465.064117 1700.999390,443.277985 1708.402100,422.080139 
	C1717.948608,394.743439 1731.872681,369.968018 1749.995117,347.396271 
	C1775.635376,315.460815 1807.227295,291.315308 1844.592163,274.855316 
	C1867.067627,264.954407 1890.525757,257.989807 1915.143188,256.057617 
	C1930.004150,254.891174 1945.013916,253.374863 1959.825195,254.248337 
	C2001.431030,256.701965 2040.266846,268.657898 2076.125732,290.363342 
	C2097.504150,303.303802 2116.333740,319.183136 2132.890137,337.626343 
	C2150.096924,356.794250 2164.051514,378.228882 2174.607178,401.915100 
	C2183.759766,422.453369 2189.692627,443.825409 2193.831787,465.804260 
	C2194.211426,467.820953 2194.655029,469.825592 2195.452637,471.906250 
	C2195.890869,473.138031 2195.993164,474.299469 2195.993164,475.460876 
	C2196.000732,567.857849 2196.000000,660.254822 2196.000000,752.651794 
	C2196.000000,753.945374 2196.000000,755.239014 2196.000000,756.984497 
	C2166.391846,756.984497 2137.144775,756.984497 2107.433105,756.910889 
z"/>
<path fill="#06B7AD" opacity="1.000000" stroke="none" 
	d="
M53.094627,256.391449 
	C104.287224,255.995880 155.410355,256.044434 206.532974,255.904984 
	C210.311630,255.894669 212.189621,257.161377 214.204941,260.280243 
	C225.358246,277.540863 236.898987,294.550995 248.091263,311.787018 
	C249.062531,313.282745 249.361771,316.378082 248.467941,317.748871 
	C232.881989,341.651428 217.061096,365.400818 201.287567,389.181000 
	C200.917221,389.739349 200.503143,390.268677 199.864609,391.149200 
	C192.787659,380.659058 185.838531,370.738525 179.363480,360.517700 
	C177.534164,357.630188 175.569763,356.949066 172.536499,356.961182 
	C153.386490,357.037720 134.234604,356.877411 115.086853,357.098602 
	C111.029984,357.145477 108.920479,355.758972 106.966721,352.283356 
	C95.620979,332.099945 84.006783,312.067505 72.503754,291.972351 
	C66.670006,281.781067 60.883747,271.562622 55.054836,261.368561 
	C54.766602,260.864471 54.275463,260.476379 53.521492,260.020294 
	C53.117790,258.933899 53.071411,257.861511 53.094627,256.391449 
z"/>
<path fill="#06B7AD" opacity="1.000000" stroke="none" 
	d="
M1302.673096,25.096504 
	C1305.931885,37.235725 1311.494629,48.233170 1318.803223,58.004547 
	C1328.534180,71.014359 1340.363037,82.065109 1355.797852,88.265060 
	C1361.648804,90.615295 1367.843628,92.107567 1373.875122,94.011993 
	C1374.869507,94.325974 1375.829224,94.749146 1377.119141,95.241806 
	C1337.165649,103.472733 1314.575684,129.183701 1302.104492,166.437408 
	C1289.519897,129.504852 1267.039795,103.517960 1226.668091,95.195831 
	C1265.454468,86.582222 1289.162964,62.510975 1300.994385,25.547958 
	C1301.442505,25.119057 1301.891113,25.073942 1302.673096,25.096504 
z"/>
<path fill="#06B7AD" opacity="1.000000" stroke="none" 
	d="
M1316.856812,251.025497 
	C1234.487671,285.452698 1180.241211,345.115997 1152.718506,431.748108 
	C1124.912109,345.010681 1069.995728,284.582458 986.066895,249.749664 
	C987.603333,249.323044 988.150269,249.013107 988.674011,249.048386 
	C1018.874573,251.082779 1045.023926,240.622742 1068.639893,222.790436 
	C1090.375488,206.377975 1106.514404,185.181229 1119.763184,161.621735 
	C1134.999023,134.528992 1145.104370,105.581375 1151.071045,75.130646 
	C1151.317871,73.871132 1151.936279,72.684395 1152.832397,70.227493 
	C1154.034424,75.185608 1155.093384,79.084557 1155.918823,83.032333 
	C1161.740845,110.877907 1171.939087,137.120300 1185.599854,161.966446 
	C1193.654053,176.615219 1203.550537,189.997101 1214.764771,202.552185 
	C1227.427856,216.729279 1242.061523,228.161972 1258.745605,236.775101 
	C1272.881714,244.072845 1288.012695,248.900314 1304.241821,248.997208 
	C1308.982178,249.025513 1313.722900,249.001587 1319.420166,249.001587 
	C1318.158936,250.121231 1317.694336,250.533630 1316.856812,251.025497 
z"/>
<path fill="#06B7AD" opacity="1.000000" stroke="none" 
	d="
M110.000000,662.079895 
	C110.000000,659.617615 110.000000,657.645203 110.000000,655.337402 
	C121.619041,655.337402 132.963669,655.337402 144.969284,655.337402 
	C133.596268,672.640869 122.392387,689.687073 111.188507,706.733215 
	C110.792336,706.642700 110.396172,706.552185 110.000000,706.461609 
	C110.000000,691.830994 110.000000,677.200317 110.000000,662.079895 
z"/>
<path fill="#000000" opacity="1.000000" stroke="none" 
	d="
M812.022705,367.990906 
	C828.598145,358.799286 846.031921,352.725647 864.306763,350.307343 
	C890.870972,346.792053 917.054504,348.885406 942.495789,358.587036 
	C965.205688,367.247131 985.125793,379.968903 1001.787720,397.462677 
	C1017.573608,414.036621 1029.810059,433.002777 1036.961792,455.573151 
	C937.239136,455.573151 837.913452,455.573151 738.071228,455.573151 
	C751.908264,417.179230 776.540466,388.260345 812.022705,367.990906 
z"/>
<path fill="#000000" opacity="1.000000" stroke="none" 
	d="
M1332.000000,456.000000 
	C1310.529663,456.000000 1289.559204,456.000000 1267.934448,456.000000 
	C1275.916382,431.660370 1289.179443,411.176514 1306.845337,393.939819 
	C1331.682739,369.705902 1361.606201,354.468658 1396.205078,350.111572 
	C1485.078979,338.919556 1549.047974,398.719727 1566.830566,456.000000 
	C1488.546143,456.000000 1410.523071,456.000000 1332.000000,456.000000 
z"/>
</svg>